<mxfile host="app.diagrams.net" agent="Mozilla/5.0 (Windows NT 10.0; Win64; x64) AppleWebKit/537.36 (KHTML, like Gecko) Chrome/129.0.0.0 Safari/537.36" version="24.7.17">
  <diagram name="Page-1" id="lukXuhKDE4j8BKwMIXdW">
    <mxGraphModel dx="794" dy="446" grid="1" gridSize="10" guides="1" tooltips="1" connect="1" arrows="1" fold="1" page="1" pageScale="1" pageWidth="827" pageHeight="1169" math="0" shadow="0">
      <root>
        <mxCell id="0" />
        <mxCell id="1" parent="0" />
        <mxCell id="HJ8fiEZlmmgor4QanL_O-35" value="Mulai" style="rounded=1;whiteSpace=wrap;arcSize=50;strokeWidth=2;" vertex="1" parent="1">
          <mxGeometry x="200" y="20" width="62" height="34" as="geometry" />
        </mxCell>
        <mxCell id="HJ8fiEZlmmgor4QanL_O-36" value="Pengaturan" style="whiteSpace=wrap;strokeWidth=2;" vertex="1" parent="1">
          <mxGeometry x="161" y="104" width="141" height="49" as="geometry" />
        </mxCell>
        <mxCell id="HJ8fiEZlmmgor4QanL_O-37" value="Inisialisasi komunikasi Serial" style="whiteSpace=wrap;strokeWidth=2;" vertex="1" parent="1">
          <mxGeometry x="123" y="202" width="217" height="66" as="geometry" />
        </mxCell>
        <mxCell id="HJ8fiEZlmmgor4QanL_O-38" value="Ulangi Loop" style="whiteSpace=wrap;strokeWidth=2;" vertex="1" parent="1">
          <mxGeometry x="159" y="319" width="144" height="49" as="geometry" />
        </mxCell>
        <mxCell id="HJ8fiEZlmmgor4QanL_O-40" value="Simpan nilai ke sensorValue" style="whiteSpace=wrap;strokeWidth=2;" vertex="1" parent="1">
          <mxGeometry x="20" y="516" width="258" height="49" as="geometry" />
        </mxCell>
        <mxCell id="HJ8fiEZlmmgor4QanL_O-41" value="Tampilkan sensorValue di Serial Monitor" style="whiteSpace=wrap;strokeWidth=2;" vertex="1" parent="1">
          <mxGeometry x="29" y="615" width="240" height="66" as="geometry" />
        </mxCell>
        <mxCell id="HJ8fiEZlmmgor4QanL_O-42" value="Tunda 10ms" style="whiteSpace=wrap;strokeWidth=2;" vertex="1" parent="1">
          <mxGeometry x="159" y="731" width="144" height="49" as="geometry" />
        </mxCell>
        <mxCell id="HJ8fiEZlmmgor4QanL_O-43" value="" style="curved=1;startArrow=none;endArrow=block;exitX=0.5;exitY=0.99;entryX=0.5;entryY=-0.01;rounded=0;" edge="1" parent="1" source="HJ8fiEZlmmgor4QanL_O-35" target="HJ8fiEZlmmgor4QanL_O-36">
          <mxGeometry relative="1" as="geometry">
            <Array as="points" />
          </mxGeometry>
        </mxCell>
        <mxCell id="HJ8fiEZlmmgor4QanL_O-44" value="" style="curved=1;startArrow=none;endArrow=block;exitX=0.5;exitY=0.99;entryX=0.5;entryY=0.01;rounded=0;" edge="1" parent="1" source="HJ8fiEZlmmgor4QanL_O-36" target="HJ8fiEZlmmgor4QanL_O-37">
          <mxGeometry relative="1" as="geometry">
            <Array as="points" />
          </mxGeometry>
        </mxCell>
        <mxCell id="HJ8fiEZlmmgor4QanL_O-45" value="" style="curved=1;startArrow=none;endArrow=block;exitX=0.5;exitY=1.01;entryX=0.5;entryY=-0.01;rounded=0;" edge="1" parent="1" source="HJ8fiEZlmmgor4QanL_O-37" target="HJ8fiEZlmmgor4QanL_O-38">
          <mxGeometry relative="1" as="geometry">
            <Array as="points" />
          </mxGeometry>
        </mxCell>
        <mxCell id="HJ8fiEZlmmgor4QanL_O-48" value="" style="curved=1;startArrow=none;endArrow=block;exitX=0.5;exitY=0.99;entryX=0.5;entryY=-0.01;rounded=0;" edge="1" parent="1" source="HJ8fiEZlmmgor4QanL_O-40" target="HJ8fiEZlmmgor4QanL_O-41">
          <mxGeometry relative="1" as="geometry">
            <Array as="points" />
          </mxGeometry>
        </mxCell>
        <mxCell id="HJ8fiEZlmmgor4QanL_O-49" value="" style="curved=1;startArrow=none;endArrow=block;exitX=0.5;exitY=1;entryX=0.22;entryY=0;rounded=0;" edge="1" parent="1" source="HJ8fiEZlmmgor4QanL_O-41" target="HJ8fiEZlmmgor4QanL_O-42">
          <mxGeometry relative="1" as="geometry">
            <Array as="points">
              <mxPoint x="149" y="706" />
            </Array>
          </mxGeometry>
        </mxCell>
        <mxCell id="HJ8fiEZlmmgor4QanL_O-50" value="" style="curved=1;startArrow=none;endArrow=block;exitX=0.78;exitY=0;entryX=0.78;entryY=0.99;rounded=0;" edge="1" parent="1" source="HJ8fiEZlmmgor4QanL_O-42" target="HJ8fiEZlmmgor4QanL_O-38">
          <mxGeometry relative="1" as="geometry">
            <Array as="points">
              <mxPoint x="313" y="706" />
              <mxPoint x="313" y="392" />
            </Array>
          </mxGeometry>
        </mxCell>
        <mxCell id="HJ8fiEZlmmgor4QanL_O-51" value="Baca nilai analog dari A0" style="shape=parallelogram;perimeter=parallelogramPerimeter;whiteSpace=wrap;html=1;fixedSize=1;" vertex="1" parent="1">
          <mxGeometry x="40" y="410" width="200" height="60" as="geometry" />
        </mxCell>
        <mxCell id="HJ8fiEZlmmgor4QanL_O-53" value="" style="endArrow=classic;html=1;rounded=0;exitX=0;exitY=0.5;exitDx=0;exitDy=0;" edge="1" parent="1" source="HJ8fiEZlmmgor4QanL_O-38">
          <mxGeometry width="50" height="50" relative="1" as="geometry">
            <mxPoint x="140" y="340" as="sourcePoint" />
            <mxPoint x="130" y="410" as="targetPoint" />
            <Array as="points">
              <mxPoint x="130" y="370" />
            </Array>
          </mxGeometry>
        </mxCell>
        <mxCell id="HJ8fiEZlmmgor4QanL_O-54" value="" style="endArrow=classic;html=1;rounded=0;exitX=0.5;exitY=1;exitDx=0;exitDy=0;" edge="1" parent="1" source="HJ8fiEZlmmgor4QanL_O-51">
          <mxGeometry width="50" height="50" relative="1" as="geometry">
            <mxPoint x="164" y="476" as="sourcePoint" />
            <mxPoint x="141" y="510" as="targetPoint" />
            <Array as="points">
              <mxPoint x="141" y="500" />
            </Array>
          </mxGeometry>
        </mxCell>
      </root>
    </mxGraphModel>
  </diagram>
</mxfile>
